# xmcd
#
# Track frame offsets:
#	150
#	32844
#	52337
#	77389
#	107360
#	164456
#	180609
#	213828
#	238229
#
# Disc length: 3713 seconds
#
# Revision: 1
# Processed by: cddbd v1.5.2PL0 Copyright (c) Steve Scherf et al.
# Submitted via: audiograbber 1.83.01
#
DISCID=710e7f09
DTITLE=Grateful Dead - 74-09-14 Olympiahalle, Munich, Germany
DYEAR=1900
DGENRE=
TTITLE0=Bertha
TTITLE1=Me and My Uncle
TTITLE2=Deal
TTITLE3=Jack Straw
TTITLE4=Scarlet Begonias
TTITLE5=Promised Land
TTITLE6=Loser
TTITLE7=El Paso
TTITLE8=Row Jimmy
EXTD=
EXTT0=
EXTT1=
EXTT2=
EXTT3=
EXTT4=
EXTT5=
EXTT6=
EXTT7=
EXTT8=
PLAYORDER=
